<?xml version="1.0" standalone="no"?>
<!DOCTYPE svg PUBLIC "-//W3C//DTD SVG 1.1//EN" "http://www.w3.org/Graphics/SVG/1.1/DTD/svg11.dtd">
<svg t="1570765354831" class="icon" viewBox="0 0 1024 1024" version="1.1" xmlns="http://www.w3.org/2000/svg" p-id="809" xmlns:xlink="http://www.w3.org/1999/xlink" width="200" height="200">
  <path d="M585.22421 122.877585c-9.910721-5.450129-21.902846-4.78191-31.235398 1.49198L203.755102 360.068705 93.70773 360.068705c-16.813944 0-30.439266 13.780865-30.439266 30.696116l0 240.893442c0 16.96744 13.625322 30.697139 30.439266 30.697139l110.047372 0L553.987788 898.107755c5.065366 3.39226 10.965749 5.14109 16.865109 5.14109 4.910846 0 9.858532-1.181919 14.370289-3.651157 9.859555-5.296633 16.068977-15.734356 16.068977-27.045983l0-722.628138C601.293187 138.611941 595.082742 128.174218 585.22421 122.877585zM540.426935 815.169811 229.84941 606.103238c-4.999874-3.39226-10.887978-5.14109-16.903995-5.14109l-88.837304 0L124.108111 421.513126l88.837304 0c6.016017 0 11.903098-1.747807 16.903995-5.14109l310.577524-209.066573L540.426935 815.169811zM852.494393 511.288802l97.797373-98.722442c11.890818-12.031011 11.890818-31.467689 0-43.448558-11.865235-11.980869-31.120788-11.980869-43.011606-0.051165l-97.80863 98.722442-97.772814-98.671277c-11.875468-11.980869-31.145347-11.980869-43.011606 0-11.901051 11.980869-11.901051 31.417547 0 43.396369l97.759511 98.6723-97.78407 98.722442c-11.904121 12.031011-11.904121 31.467689 0 43.448558 5.938246 6.014994 13.727653 8.997931 21.517059 8.997931 7.764847 0 15.567557-2.982938 21.518083-8.946766l97.797373-98.773607 97.758488 98.723465c5.912663 6.014994 13.727653 8.997931 21.519106 8.997931 7.789407 0 15.566534-2.982938 21.517059-8.997931 11.864212-11.980869 11.864212-31.417547 0-43.396369L852.494393 511.288802z" fill="currentColor" p-id="810"></path>
</svg>
